<svg width="181" height="20" viewBox="0 0 181 20" fill="none" xmlns="http://www.w3.org/2000/svg">
<path d="M0.427557 16V5.09091H2.55114V16H0.427557ZM1.5 3.40767C1.13068 3.40767 0.813447 3.28456 0.548295 3.03835C0.287879 2.7874 0.15767 2.48911 0.15767 2.14347C0.15767 1.79309 0.287879 1.49479 0.548295 1.24858C0.813447 0.997632 1.13068 0.872159 1.5 0.872159C1.86932 0.872159 2.18419 0.997632 2.4446 1.24858C2.70975 1.49479 2.84233 1.79309 2.84233 2.14347C2.84233 2.48911 2.70975 2.7874 2.4446 3.03835C2.18419 3.28456 1.86932 3.40767 1.5 3.40767ZM7.53161 9.52273V16H5.40803V5.09091H7.44638V6.86648H7.58132C7.83227 6.28883 8.22526 5.82481 8.7603 5.47443C9.30007 5.12405 9.97952 4.94886 10.7987 4.94886C11.542 4.94886 12.1931 5.10511 12.7518 5.41761C13.3105 5.72538 13.7437 6.18466 14.0515 6.79545C14.3593 7.40625 14.5131 8.16146 14.5131 9.06108V16H12.3896V9.31676C12.3896 8.52604 12.1836 7.90814 11.7717 7.46307C11.3597 7.01326 10.7939 6.78835 10.0742 6.78835C9.58179 6.78835 9.14382 6.89489 8.7603 7.10795C8.38151 7.32102 8.08085 7.63352 7.85831 8.04545C7.64051 8.45265 7.53161 8.94508 7.53161 9.52273ZM22.5529 5.09091V6.79545H16.3881V5.09091H22.5529ZM18.0785 16V3.8267C18.0785 3.14489 18.2276 2.57907 18.5259 2.12926C18.8242 1.67472 19.2196 1.33617 19.712 1.11364C20.2044 0.886363 20.7395 0.772726 21.3171 0.772726C21.7433 0.772726 22.1078 0.808238 22.4109 0.879261C22.7139 0.945549 22.9388 1.0071 23.0856 1.06392L22.5884 2.78267C22.489 2.75426 22.3612 2.72112 22.2049 2.68324C22.0487 2.64062 21.8593 2.61932 21.6367 2.61932C21.1206 2.61932 20.7513 2.74716 20.5288 3.00284C20.311 3.25852 20.2021 3.62784 20.2021 4.1108V16H18.0785ZM28.9094 16.2202C27.8867 16.2202 26.9942 15.9858 26.2319 15.517C25.4696 15.0483 24.8777 14.3925 24.4563 13.5497C24.0349 12.7069 23.8242 11.7221 23.8242 10.5952C23.8242 9.46354 24.0349 8.47396 24.4563 7.62642C24.8777 6.77888 25.4696 6.12074 26.2319 5.65199C26.9942 5.18324 27.8867 4.94886 28.9094 4.94886C29.9322 4.94886 30.8247 5.18324 31.587 5.65199C32.3493 6.12074 32.9412 6.77888 33.3626 7.62642C33.784 8.47396 33.9947 9.46354 33.9947 10.5952C33.9947 11.7221 33.784 12.7069 33.3626 13.5497C32.9412 14.3925 32.3493 15.0483 31.587 15.517C30.8247 15.9858 29.9322 16.2202 28.9094 16.2202ZM28.9165 14.4375C29.5794 14.4375 30.1287 14.2623 30.5643 13.9119C30.9999 13.5616 31.3219 13.0952 31.5302 12.5128C31.7433 11.9304 31.8498 11.2888 31.8498 10.5881C31.8498 9.89205 31.7433 9.25284 31.5302 8.67045C31.3219 8.08333 30.9999 7.61222 30.5643 7.2571C30.1287 6.90199 29.5794 6.72443 28.9165 6.72443C28.2489 6.72443 27.695 6.90199 27.2546 7.2571C26.819 7.61222 26.4947 8.08333 26.2816 8.67045C26.0733 9.25284 25.9691 9.89205 25.9691 10.5881C25.9691 11.2888 26.0733 11.9304 26.2816 12.5128C26.4947 13.0952 26.819 13.5616 27.2546 13.9119C27.695 14.2623 28.2489 14.4375 28.9165 14.4375ZM45.1222 19.956C43.6544 19.956 42.3523 19.7547 41.2159 19.3523C40.0843 18.9545 39.1302 18.3674 38.3537 17.5909C37.5772 16.8191 36.9877 15.8722 36.5852 14.75C36.1828 13.6278 35.9815 12.3471 35.9815 10.9077C35.9815 9.50616 36.1851 8.24669 36.5923 7.12926C36.9995 6.01184 37.5914 5.06013 38.3679 4.27415C39.1491 3.48343 40.0985 2.87973 41.2159 2.46307C42.3333 2.0464 43.6023 1.83807 45.0227 1.83807C46.3816 1.83807 47.5795 2.05114 48.6165 2.47727C49.6534 2.90341 50.5246 3.48816 51.2301 4.23153C51.9403 4.9749 52.4754 5.82718 52.8352 6.78835C53.1951 7.74953 53.375 8.76515 53.375 9.83523C53.375 10.5833 53.3277 11.3149 53.233 12.0298C53.1383 12.7401 52.9631 13.384 52.7074 13.9616C52.4564 14.5346 52.0919 14.9938 51.6136 15.3395C51.1402 15.6804 50.5246 15.858 49.767 15.8722C49.3646 15.8864 48.974 15.839 48.5952 15.7301C48.2164 15.6212 47.8944 15.446 47.6293 15.2045C47.3641 14.9583 47.2031 14.6458 47.1463 14.267H47.0611C46.9474 14.5464 46.758 14.8068 46.4929 15.0483C46.2277 15.285 45.8892 15.4744 45.4773 15.6165C45.0701 15.7538 44.5966 15.8106 44.0568 15.7869C43.4602 15.7633 42.9228 15.6283 42.4446 15.3821C41.9664 15.1359 41.5568 14.795 41.2159 14.3594C40.8797 13.9238 40.6217 13.4077 40.4418 12.8111C40.2618 12.2145 40.1719 11.5516 40.1719 10.8224C40.1719 10.1217 40.2737 9.49432 40.4773 8.94034C40.6809 8.38163 40.9579 7.90104 41.3082 7.49858C41.6634 7.09138 42.0705 6.76941 42.5298 6.53267C42.9891 6.29593 43.4744 6.14678 43.9858 6.08523C44.483 6.02841 44.9399 6.04261 45.3565 6.12784C45.7732 6.21307 46.1188 6.34328 46.3935 6.51847C46.6728 6.69366 46.848 6.88542 46.919 7.09375H47.0114V6.2983H48.7585V12.8892C48.7585 13.2633 48.8556 13.5805 49.0497 13.8409C49.2486 14.1013 49.5303 14.2315 49.8949 14.2315C50.3258 14.2315 50.6619 14.0729 50.9034 13.7557C51.1496 13.4384 51.3224 12.9508 51.4219 12.2926C51.526 11.6345 51.5781 10.7917 51.5781 9.7642C51.5781 9.04451 51.4811 8.36742 51.2869 7.73295C51.0975 7.09375 50.8158 6.5161 50.4418 6C50.0724 5.47917 49.6179 5.03172 49.0781 4.65767C48.5384 4.28362 47.9228 3.99479 47.2315 3.79119C46.545 3.58759 45.785 3.4858 44.9517 3.4858C43.8201 3.4858 42.8139 3.66098 41.9332 4.01136C41.0526 4.35701 40.3092 4.85653 39.7031 5.50994C39.1018 6.16335 38.6449 6.94697 38.3324 7.8608C38.0246 8.76989 37.8707 9.79025 37.8707 10.9219C37.8707 12.1009 38.0294 13.1473 38.3466 14.0611C38.6638 14.9702 39.1326 15.7372 39.7528 16.3622C40.3731 16.9872 41.1402 17.4607 42.054 17.7827C42.9678 18.1094 44.0213 18.2727 45.2145 18.2727C45.7448 18.2727 46.2656 18.2254 46.777 18.1307C47.2884 18.0407 47.7429 17.9366 48.1406 17.8182C48.5431 17.7045 48.8438 17.6122 49.0426 17.5412L49.5398 19.0966C49.2462 19.2339 48.8556 19.3688 48.3679 19.5014C47.8849 19.634 47.3594 19.7429 46.7912 19.8281C46.2277 19.9134 45.6714 19.956 45.1222 19.956ZM44.4688 14.0469C45.0843 14.0469 45.5791 13.9238 45.9531 13.6776C46.3319 13.4313 46.6042 13.0644 46.7699 12.5767C46.9403 12.0843 47.0256 11.4688 47.0256 10.7301C47.0208 10.0104 46.9285 9.4375 46.7486 9.01136C46.5734 8.58049 46.2988 8.27273 45.9247 8.08807C45.5554 7.89867 45.0795 7.80398 44.4972 7.80398C43.9621 7.80398 43.5052 7.93419 43.1264 8.1946C42.7524 8.45502 42.4659 8.80776 42.267 9.25284C42.0729 9.69792 41.9735 10.1927 41.9688 10.7372C41.9735 11.3101 42.054 11.8499 42.2102 12.3565C42.3712 12.8584 42.6316 13.2656 42.9915 13.5781C43.3561 13.8906 43.8485 14.0469 44.4688 14.0469ZM57.8441 9.52273V16H55.7205V5.09091H57.7589V6.86648H57.8938C58.1448 6.28883 58.5378 5.82481 59.0728 5.47443C59.6126 5.12405 60.292 4.94886 61.1112 4.94886C61.8545 4.94886 62.5056 5.10511 63.0643 5.41761C63.623 5.72538 64.0562 6.18466 64.364 6.79545C64.6718 7.40625 64.8256 8.16146 64.8256 9.06108V16H62.7021V9.31676C62.7021 8.52604 62.4961 7.90814 62.0842 7.46307C61.6722 7.01326 61.1064 6.78835 60.3867 6.78835C59.8943 6.78835 59.4563 6.89489 59.0728 7.10795C58.694 7.32102 58.3933 7.63352 58.1708 8.04545C57.953 8.45265 57.8441 8.94508 57.8441 9.52273ZM72.3754 16.2202C71.3005 16.2202 70.3749 15.9905 69.5984 15.5312C68.8266 15.0672 68.23 14.4162 67.8086 13.5781C67.3919 12.7353 67.1836 11.7481 67.1836 10.6165C67.1836 9.49905 67.3919 8.5142 67.8086 7.66193C68.23 6.80966 68.8171 6.14441 69.57 5.66619C70.3275 5.18797 71.2129 4.94886 72.2262 4.94886C72.8417 4.94886 73.4383 5.05066 74.016 5.25426C74.5936 5.45786 75.1121 5.77746 75.5714 6.21307C76.0307 6.64867 76.3929 7.21449 76.658 7.91051C76.9232 8.6018 77.0558 9.44223 77.0558 10.4318V11.1847H68.3839V9.59375H74.9748C74.9748 9.03504 74.8612 8.54025 74.6339 8.10938C74.4066 7.67377 74.087 7.33049 73.6751 7.07955C73.2679 6.8286 72.7897 6.70312 72.2404 6.70312C71.6438 6.70312 71.123 6.84991 70.6779 7.14347C70.2376 7.43229 69.8967 7.81108 69.6552 8.27983C69.4184 8.74384 69.3001 9.24811 69.3001 9.79261V11.0355C69.3001 11.7647 69.4279 12.3849 69.6836 12.8963C69.944 13.4077 70.3062 13.7983 70.7702 14.0682C71.2343 14.3333 71.7764 14.4659 72.3967 14.4659C72.7991 14.4659 73.1661 14.4091 73.4975 14.2955C73.829 14.1771 74.1154 14.0019 74.3569 13.7699C74.5984 13.5379 74.783 13.2514 74.9109 12.9105L76.9208 13.2727C76.7598 13.8646 76.471 14.383 76.0543 14.8281C75.6424 15.2685 75.1239 15.6117 74.4989 15.858C73.8787 16.0994 73.1708 16.2202 72.3754 16.2202ZM84.5043 5.09091V6.79545H78.5455V5.09091H84.5043ZM80.1435 2.47727H82.267V12.7969C82.267 13.2088 82.3286 13.5189 82.4517 13.7273C82.5748 13.9309 82.7334 14.0705 82.9276 14.1463C83.1264 14.2173 83.3419 14.2528 83.5739 14.2528C83.7443 14.2528 83.8935 14.241 84.0213 14.2173C84.1491 14.1937 84.2486 14.1747 84.3196 14.1605L84.7031 15.9148C84.58 15.9621 84.4048 16.0095 84.1776 16.0568C83.9503 16.1089 83.6662 16.1373 83.3253 16.142C82.7666 16.1515 82.2457 16.0521 81.7628 15.8438C81.2798 15.6354 80.8892 15.3134 80.5909 14.8778C80.2926 14.4422 80.1435 13.8954 80.1435 13.2372V2.47727ZM86.8533 16V5.09091H88.9769V16H86.8533ZM87.9258 3.40767C87.5565 3.40767 87.2392 3.28456 86.9741 3.03835C86.7137 2.7874 86.5835 2.48911 86.5835 2.14347C86.5835 1.79309 86.7137 1.49479 86.9741 1.24858C87.2392 0.997632 87.5565 0.872159 87.9258 0.872159C88.2951 0.872159 88.61 0.997632 88.8704 1.24858C89.1355 1.49479 89.2681 1.79309 89.2681 2.14347C89.2681 2.48911 89.1355 2.7874 88.8704 3.03835C88.61 3.28456 88.2951 3.40767 87.9258 3.40767ZM100.009 7.75426L98.0838 8.09517C98.0033 7.84896 97.8755 7.61458 97.7003 7.39205C97.5298 7.16951 97.2978 6.98722 97.0043 6.84517C96.7107 6.70312 96.3438 6.6321 95.9034 6.6321C95.3021 6.6321 94.8002 6.76705 94.3977 7.03693C93.9953 7.30208 93.794 7.64536 93.794 8.06676C93.794 8.43134 93.929 8.72491 94.1989 8.94744C94.4688 9.16998 94.9044 9.35227 95.5057 9.49432L97.2386 9.89205C98.2424 10.1241 98.9905 10.4815 99.483 10.9645C99.9754 11.4474 100.222 12.0748 100.222 12.8466C100.222 13.5 100.032 14.0824 99.6534 14.5938C99.2794 15.1004 98.7562 15.4981 98.0838 15.7869C97.4162 16.0758 96.642 16.2202 95.7614 16.2202C94.5398 16.2202 93.5431 15.9598 92.7713 15.4389C91.9995 14.9134 91.526 14.1676 91.3509 13.2017L93.4034 12.8892C93.5313 13.4242 93.794 13.8291 94.1918 14.1037C94.5895 14.3736 95.108 14.5085 95.7472 14.5085C96.4432 14.5085 96.9995 14.3641 97.4162 14.0753C97.8329 13.7817 98.0412 13.4242 98.0412 13.0028C98.0412 12.6619 97.9134 12.3755 97.6577 12.1435C97.4067 11.9115 97.0208 11.7363 96.5 11.6179L94.6534 11.2131C93.6354 10.9811 92.8826 10.6117 92.3949 10.1051C91.9119 9.59848 91.6705 8.95691 91.6705 8.1804C91.6705 7.53646 91.8504 6.97301 92.2102 6.49006C92.5701 6.0071 93.0672 5.63068 93.7017 5.3608C94.3362 5.08617 95.063 4.94886 95.8821 4.94886C97.0611 4.94886 97.9891 5.20455 98.6662 5.71591C99.3433 6.22254 99.7907 6.90199 100.009 7.75426ZM107.258 16.2202C106.183 16.2202 105.258 15.9905 104.481 15.5312C103.709 15.0672 103.113 14.4162 102.691 13.5781C102.275 12.7353 102.066 11.7481 102.066 10.6165C102.066 9.49905 102.275 8.5142 102.691 7.66193C103.113 6.80966 103.7 6.14441 104.453 5.66619C105.21 5.18797 106.096 4.94886 107.109 4.94886C107.725 4.94886 108.321 5.05066 108.899 5.25426C109.476 5.45786 109.995 5.77746 110.454 6.21307C110.913 6.64867 111.276 7.21449 111.541 7.91051C111.806 8.6018 111.939 9.44223 111.939 10.4318V11.1847H103.267V9.59375H109.858C109.858 9.03504 109.744 8.54025 109.517 8.10938C109.289 7.67377 108.97 7.33049 108.558 7.07955C108.151 6.8286 107.672 6.70312 107.123 6.70312C106.527 6.70312 106.006 6.84991 105.561 7.14347C105.12 7.43229 104.779 7.81108 104.538 8.27983C104.301 8.74384 104.183 9.24811 104.183 9.79261V11.0355C104.183 11.7647 104.311 12.3849 104.566 12.8963C104.827 13.4077 105.189 13.7983 105.653 14.0682C106.117 14.3333 106.659 14.4659 107.279 14.4659C107.682 14.4659 108.049 14.4091 108.38 14.2955C108.712 14.1771 108.998 14.0019 109.24 13.7699C109.481 13.5379 109.666 13.2514 109.794 12.9105L111.804 13.2727C111.643 13.8646 111.354 14.383 110.937 14.8281C110.525 15.2685 110.007 15.6117 109.382 15.858C108.761 16.0994 108.054 16.2202 107.258 16.2202ZM116.418 9.52273V16H114.295V5.09091H116.333V6.86648H116.468C116.719 6.28883 117.112 5.82481 117.647 5.47443C118.187 5.12405 118.866 4.94886 119.685 4.94886C120.429 4.94886 121.08 5.10511 121.638 5.41761C122.197 5.72538 122.63 6.18466 122.938 6.79545C123.246 7.40625 123.4 8.16146 123.4 9.06108V16H121.276V9.31676C121.276 8.52604 121.07 7.90814 120.658 7.46307C120.246 7.01326 119.681 6.78835 118.961 6.78835C118.469 6.78835 118.031 6.89489 117.647 7.10795C117.268 7.32102 116.968 7.63352 116.745 8.04545C116.527 8.45265 116.418 8.94508 116.418 9.52273ZM134.423 7.75426L132.498 8.09517C132.417 7.84896 132.29 7.61458 132.114 7.39205C131.944 7.16951 131.712 6.98722 131.418 6.84517C131.125 6.70312 130.758 6.6321 130.317 6.6321C129.716 6.6321 129.214 6.76705 128.812 7.03693C128.409 7.30208 128.208 7.64536 128.208 8.06676C128.208 8.43134 128.343 8.72491 128.613 8.94744C128.883 9.16998 129.318 9.35227 129.92 9.49432L131.653 9.89205C132.656 10.1241 133.405 10.4815 133.897 10.9645C134.389 11.4474 134.636 12.0748 134.636 12.8466C134.636 13.5 134.446 14.0824 134.067 14.5938C133.693 15.1004 133.17 15.4981 132.498 15.7869C131.83 16.0758 131.056 16.2202 130.175 16.2202C128.954 16.2202 127.957 15.9598 127.185 15.4389C126.414 14.9134 125.94 14.1676 125.765 13.2017L127.817 12.8892C127.945 13.4242 128.208 13.8291 128.606 14.1037C129.004 14.3736 129.522 14.5085 130.161 14.5085C130.857 14.5085 131.414 14.3641 131.83 14.0753C132.247 13.7817 132.455 13.4242 132.455 13.0028C132.455 12.6619 132.327 12.3755 132.072 12.1435C131.821 11.9115 131.435 11.7363 130.914 11.6179L129.067 11.2131C128.049 10.9811 127.297 10.6117 126.809 10.1051C126.326 9.59848 126.085 8.95691 126.085 8.1804C126.085 7.53646 126.264 6.97301 126.624 6.49006C126.984 6.0071 127.481 5.63068 128.116 5.3608C128.75 5.08617 129.477 4.94886 130.296 4.94886C131.475 4.94886 132.403 5.20455 133.08 5.71591C133.757 6.22254 134.205 6.90199 134.423 7.75426ZM138.37 16.1349C137.981 16.1349 137.648 15.9976 137.368 15.723C137.089 15.4437 136.949 15.1075 136.949 14.7145C136.949 14.3262 137.089 13.9948 137.368 13.7202C137.648 13.4408 137.981 13.3011 138.37 13.3011C138.758 13.3011 139.092 13.4408 139.371 13.7202C139.65 13.9948 139.79 14.3262 139.79 14.7145C139.79 14.9749 139.724 15.214 139.591 15.4318C139.463 15.6449 139.293 15.8153 139.08 15.9432C138.867 16.071 138.63 16.1349 138.37 16.1349ZM147.23 16.2202C146.174 16.2202 145.265 15.9811 144.502 15.5028C143.745 15.0199 143.163 14.3546 142.755 13.5071C142.348 12.6596 142.145 11.6889 142.145 10.5952C142.145 9.48722 142.353 8.50947 142.77 7.66193C143.186 6.80966 143.773 6.14441 144.531 5.66619C145.288 5.18797 146.181 4.94886 147.208 4.94886C148.037 4.94886 148.776 5.10275 149.424 5.41051C150.073 5.71354 150.596 6.13968 150.994 6.68892C151.396 7.23816 151.636 7.87973 151.711 8.61364H149.645C149.531 8.10227 149.27 7.66193 148.863 7.29261C148.461 6.9233 147.921 6.73864 147.244 6.73864C146.652 6.73864 146.134 6.89489 145.689 7.20739C145.248 7.51515 144.905 7.95549 144.659 8.52841C144.413 9.09659 144.289 9.76894 144.289 10.5455C144.289 11.3409 144.41 12.0275 144.652 12.6051C144.893 13.1828 145.234 13.6302 145.674 13.9474C146.119 14.2647 146.643 14.4233 147.244 14.4233C147.646 14.4233 148.011 14.3499 148.338 14.2031C148.669 14.0516 148.946 13.8362 149.169 13.5568C149.396 13.2775 149.555 12.9413 149.645 12.5483H151.711C151.636 13.2538 151.406 13.8835 151.022 14.4375C150.639 14.9915 150.125 15.4271 149.481 15.7443C148.842 16.0616 148.092 16.2202 147.23 16.2202ZM158.577 16.2202C157.555 16.2202 156.662 15.9858 155.9 15.517C155.138 15.0483 154.546 14.3925 154.124 13.5497C153.703 12.7069 153.492 11.7221 153.492 10.5952C153.492 9.46354 153.703 8.47396 154.124 7.62642C154.546 6.77888 155.138 6.12074 155.9 5.65199C156.662 5.18324 157.555 4.94886 158.577 4.94886C159.6 4.94886 160.493 5.18324 161.255 5.65199C162.017 6.12074 162.609 6.77888 163.031 7.62642C163.452 8.47396 163.663 9.46354 163.663 10.5952C163.663 11.7221 163.452 12.7069 163.031 13.5497C162.609 14.3925 162.017 15.0483 161.255 15.517C160.493 15.9858 159.6 16.2202 158.577 16.2202ZM158.585 14.4375C159.247 14.4375 159.797 14.2623 160.232 13.9119C160.668 13.5616 160.99 13.0952 161.198 12.5128C161.411 11.9304 161.518 11.2888 161.518 10.5881C161.518 9.89205 161.411 9.25284 161.198 8.67045C160.99 8.08333 160.668 7.61222 160.232 7.2571C159.797 6.90199 159.247 6.72443 158.585 6.72443C157.917 6.72443 157.363 6.90199 156.923 7.2571C156.487 7.61222 156.163 8.08333 155.95 8.67045C155.741 9.25284 155.637 9.89205 155.637 10.5881C155.637 11.2888 155.741 11.9304 155.95 12.5128C156.163 13.0952 156.487 13.5616 156.923 13.9119C157.363 14.2623 157.917 14.4375 158.585 14.4375ZM166.033 16V5.09091H168.071V6.86648H168.206C168.434 6.26515 168.805 5.7964 169.321 5.46023C169.837 5.11932 170.455 4.94886 171.175 4.94886C171.904 4.94886 172.515 5.11932 173.007 5.46023C173.505 5.80114 173.872 6.26989 174.108 6.86648H174.222C174.482 6.28409 174.897 5.82008 175.465 5.47443C176.033 5.12405 176.71 4.94886 177.496 4.94886C178.486 4.94886 179.293 5.259 179.918 5.87926C180.548 6.49953 180.863 7.43466 180.863 8.68466V16H178.739V8.88352C178.739 8.14489 178.538 7.60985 178.135 7.27841C177.733 6.94697 177.252 6.78125 176.694 6.78125C176.002 6.78125 175.465 6.99432 175.081 7.42045C174.698 7.84186 174.506 8.384 174.506 9.04688V16H172.39V8.74858C172.39 8.15672 172.205 7.68087 171.836 7.32102C171.466 6.96117 170.986 6.78125 170.394 6.78125C169.991 6.78125 169.62 6.88778 169.279 7.10085C168.943 7.30919 168.67 7.60038 168.462 7.97443C168.258 8.34848 168.157 8.78172 168.157 9.27415V16H166.033Z" fill="white"/>
</svg>
